<?xml version="1.0" standalone="no"?><!DOCTYPE svg PUBLIC "-//W3C//DTD SVG 1.1//EN" "http://www.w3.org/Graphics/SVG/1.1/DTD/svg11.dtd"><svg height="1024" node-id="1" sillyvg="true" template-height="1024" template-width="1024" version="1.1" viewBox="0 0 1024 1024" width="1024" xmlns="http://www.w3.org/2000/svg" xmlns:xlink="http://www.w3.org/1999/xlink"><defs node-id="71"><linearGradient gradientUnits="objectBoundingBox" id="未命名的渐变_15" node-id="5" spreadMethod="pad" x1="256.84" x2="728.23" y1="805.66" y2="553.23"><stop offset="0" stop-color="#ecf3ff"></stop><stop offset="1" stop-color="#c9e2ff"></stop></linearGradient><linearGradient gradientUnits="objectBoundingBox" id="未命名的渐变_5" node-id="8" spreadMethod="pad" x1="112.44" x2="442.9" y1="755.28" y2="923.64"><stop offset="0" stop-color="#c8e1ff"></stop><stop offset="1" stop-color="#c5dfff"></stop></linearGradient><linearGradient gradientUnits="objectBoundingBox" id="未命名的渐变_12" node-id="11" spreadMethod="pad" x1="477.47" x2="973.25" y1="846.11" y2="835.86"><stop offset="0.06" stop-color="#c5dfff"></stop><stop offset="0.23" stop-color="#8bb4f1"></stop><stop offset="1" stop-color="#a2c5f7"></stop></linearGradient><linearGradient gradientUnits="objectBoundingBox" id="未命名的渐变_146" node-id="15" spreadMethod="pad" x1="316.78" x2="491.88" y1="637.36" y2="636.14"><stop offset="0.06" stop-color="#e6f1ff"></stop><stop offset="0.49" stop-color="#77abff"></stop><stop offset="1" stop-color="#63a0ff"></stop></linearGradient><linearGradient gradientUnits="objectBoundingBox" id="未命名的渐变_142" node-id="19" spreadMethod="pad" x1="329.44" x2="484.91" y1="709.45" y2="712.54"><stop offset="0.17" stop-color="#509eff"></stop><stop offset="1" stop-color="#0066ff"></stop></linearGradient><linearGradient gradientUnits="objectBoundingBox" id="未命名的渐变_178" node-id="22" spreadMethod="pad" x1="411.69" x2="411.9" y1="671" y2="630.06"><stop offset="0" stop-color="#ffffff"></stop><stop offset="1" stop-color="#ffffff" stop-opacity="0"></stop></linearGradient><linearGradient gradientUnits="objectBoundingBox" id="未命名的渐变_178-2" node-id="25" spreadMethod="pad" x1="396.32" x2="433.28" y1="695.42" y2="713.3"><stop offset="0" stop-color="#ffffff"></stop><stop offset="1" stop-color="#ffffff" stop-opacity="0"></stop></linearGradient><linearGradient gradientUnits="objectBoundingBox" id="未命名的渐变_146-2" node-id="26" spreadMethod="pad" x1="162.41" x2="274.03" y1="485.9" y2="485.12"><stop offset="0.06" stop-color="#e6f1ff"></stop><stop offset="0.49" stop-color="#77abff"></stop><stop offset="1" stop-color="#63a0ff"></stop></linearGradient><linearGradient gradientUnits="objectBoundingBox" id="未命名的渐变_142-2" node-id="27" spreadMethod="pad" x1="170.48" x2="269.58" y1="531.85" y2="533.82"><stop offset="0.17" stop-color="#509eff"></stop><stop offset="1" stop-color="#0066ff"></stop></linearGradient><linearGradient gradientUnits="objectBoundingBox" id="未命名的渐变_178-3" node-id="28" spreadMethod="pad" x1="222.91" x2="223.05" y1="507.34" y2="481.25"><stop offset="0" stop-color="#ffffff"></stop><stop offset="1" stop-color="#ffffff" stop-opacity="0"></stop></linearGradient><linearGradient gradientUnits="objectBoundingBox" id="未命名的渐变_178-4" node-id="29" spreadMethod="pad" x1="213.12" x2="236.67" y1="522.91" y2="534.31"><stop offset="0" stop-color="#ffffff"></stop><stop offset="1" stop-color="#ffffff" stop-opacity="0"></stop></linearGradient><linearGradient gradientUnits="objectBoundingBox" id="未命名的渐变_274" node-id="30" spreadMethod="pad" x1="415.45" x2="415.45" y1="486.09" y2="574.23"><stop offset="0" stop-color="#8fb6f2"></stop><stop offset="1" stop-color="#c9e2ff"></stop></linearGradient><linearGradient gradientUnits="objectBoundingBox" id="未命名的渐变_146-3" node-id="33" spreadMethod="pad" x1="555.02" x2="796.02" y1="525.26" y2="523.58"><stop offset="0.06" stop-color="#e6f1ff"></stop><stop offset="0.49" stop-color="#77abff"></stop><stop offset="1" stop-color="#63a0ff"></stop></linearGradient><linearGradient gradientUnits="objectBoundingBox" id="未命名的渐变_142-3" node-id="34" spreadMethod="pad" x1="572.43" x2="786.42" y1="624.47" y2="628.73"><stop offset="0.17" stop-color="#509eff"></stop><stop offset="1" stop-color="#0066ff"></stop></linearGradient><linearGradient gradientUnits="objectBoundingBox" id="未命名的渐变_178-5" node-id="35" spreadMethod="pad" x1="685.26" x2="685.53" y1="571.04" y2="519.09"><stop offset="0" stop-color="#ffffff"></stop><stop offset="1" stop-color="#ffffff" stop-opacity="0"></stop></linearGradient><linearGradient gradientUnits="objectBoundingBox" id="未命名的渐变_178-6" node-id="36" spreadMethod="pad" x1="665.76" x2="712.66" y1="602.04" y2="624.73"><stop offset="0" stop-color="#ffffff"></stop><stop offset="1" stop-color="#ffffff" stop-opacity="0"></stop></linearGradient><linearGradient gradientUnits="objectBoundingBox" id="未命名的渐变_146-4" node-id="37" spreadMethod="pad" x1="318.02" x2="663.88" y1="231.75" y2="229.34"><stop offset="0.06" stop-color="#e6f1ff"></stop><stop offset="0.49" stop-color="#77abff"></stop><stop offset="1" stop-color="#63a0ff"></stop></linearGradient><linearGradient gradientUnits="objectBoundingBox" id="未命名的渐变_142-4" node-id="38" spreadMethod="pad" x1="343.02" x2="650.11" y1="374.14" y2="380.25"><stop offset="0.17" stop-color="#509eff"></stop><stop offset="1" stop-color="#0066ff"></stop></linearGradient><linearGradient gradientUnits="objectBoundingBox" id="未命名的渐变_178-7" node-id="39" spreadMethod="pad" x1="504.87" x2="505.19" y1="296.89" y2="237.44"><stop offset="0" stop-color="#ffffff"></stop><stop offset="1" stop-color="#ffffff" stop-opacity="0"></stop></linearGradient><linearGradient gradientUnits="objectBoundingBox" id="未命名的渐变_178-8" node-id="40" spreadMethod="pad" x1="482.56" x2="536.23" y1="332.36" y2="358.33"><stop offset="0" stop-color="#ffffff"></stop><stop offset="1" stop-color="#ffffff" stop-opacity="0"></stop></linearGradient><linearGradient gradientUnits="objectBoundingBox" id="未命名的渐变_274-2" node-id="41" spreadMethod="pad" x1="674.44" x2="640.31" y1="439.75" y2="434.81"><stop offset="0" stop-color="#8fb6f2"></stop><stop offset="1" stop-color="#c9e2ff"></stop></linearGradient><linearGradient gradientUnits="objectBoundingBox" id="未命名的渐变_274-3" node-id="42" spreadMethod="pad" x1="673.31" x2="696.47" y1="467.06" y2="492.41"><stop offset="0" stop-color="#8fb6f2"></stop><stop offset="1" stop-color="#c9e2ff"></stop></linearGradient></defs><path d="M 418.67 443.68 C 457.77 420.53 524.14 419.93 566.92 442.29 L 915.28 624.43 C 958.06 646.79 961.08 683.68 921.99 706.83 L 604.05 895.05 C 565.00 918.19 498.58 918.80 455.80 896.44 L 107.44 714.30 C 64.66 691.94 61.64 655.04 100.73 631.90 Z" fill="url(#未命名的渐变_15)" fill-rule="nonzero" node-id="216" stroke="none" target-height="498.87" target-width="899.44" target-x="61.639996" target-y="419.93"></path><path d="M 109.21 715.88 C 101.47 711.97 94.39 706.88 88.21 700.80 C 84.84 697.44 81.96 693.62 79.65 689.46 C 78.61 687.57 77.74 685.59 77.02 683.56 C 75.63 679.71 74.96 675.65 75.02 671.56 L 72.80 768.19 C 72.43 784.19 83.94 800.48 106.96 812.52 L 455.32 994.65 L 457.57 898.00 Z" fill="url(#未命名的渐变_5)" fill-rule="nonzero" node-id="218" stroke="none" target-height="323.09003" target-width="385.14" target-x="72.43" target-y="671.56"></path><path d="M 950.88 673.51 C 950.75 674.51 950.61 675.51 950.39 676.58 C 950.21 677.36 949.99 678.15 949.76 678.93 C 949.47 679.93 949.16 680.87 948.76 681.84 C 948.45 682.62 948.11 683.39 947.76 684.16 C 947.30 685.16 946.76 686.16 946.23 687.09 C 945.80 687.83 945.36 688.56 944.88 689.29 C 944.15 690.40 943.33 691.48 942.48 692.57 C 941.97 693.20 941.48 693.84 940.94 694.47 C 939.27 696.41 937.46 698.24 935.54 699.94 C 933.94 701.35 932.20 702.72 930.36 704.06 C 929.80 704.47 929.18 704.85 928.60 705.24 C 927.04 706.32 925.47 707.39 923.75 708.41 L 605.82 896.63 C 603.25 898.15 600.54 899.56 597.75 900.89 C 596.82 901.33 595.83 901.71 594.87 902.13 C 592.96 902.98 591.04 903.82 589.05 904.57 C 587.87 905.02 586.65 905.41 585.45 905.82 C 583.59 906.47 581.73 907.10 579.81 907.67 C 578.50 908.06 577.15 908.41 575.81 908.76 C 573.93 909.26 572.05 909.76 570.14 910.18 C 569.06 910.42 567.96 910.63 566.86 910.86 C 562.15 911.81 557.34 912.62 552.45 913.19 C 551.73 913.27 551.00 913.31 550.29 913.38 C 547.22 913.70 544.14 913.94 541.03 914.10 C 539.59 914.18 538.14 914.22 536.70 914.26 C 534.70 914.32 532.65 914.35 530.63 914.35 C 529.04 914.35 527.44 914.35 525.85 914.26 C 524.09 914.26 522.33 914.14 520.57 914.04 C 518.81 913.94 517.25 913.83 515.57 913.69 C 513.89 913.55 512.31 913.40 510.68 913.23 C 509.05 913.06 507.33 912.83 505.68 912.60 C 504.03 912.37 502.45 912.13 500.84 911.87 C 499.23 911.61 497.65 911.30 496.06 910.99 C 494.47 910.68 492.61 910.30 490.91 909.91 C 489.44 909.58 487.98 909.22 486.52 908.84 C 484.52 908.33 482.56 907.79 480.64 907.20 C 479.37 906.82 478.11 906.43 476.86 906.02 C 473.17 904.81 469.54 903.50 466.06 902.02 L 465.90 901.95 C 463.04 900.73 460.26 899.42 457.57 898.02 L 455.32 994.65 C 457.99 996.06 460.76 997.37 463.64 998.59 L 463.64 998.59 L 463.77 998.59 C 467.26 1000.08 470.88 1001.38 474.58 1002.59 C 475.02 1002.73 475.43 1002.93 475.88 1003.07 C 476.69 1003.33 477.54 1003.52 478.36 1003.76 C 480.30 1004.35 482.25 1004.90 484.24 1005.41 C 484.95 1005.59 485.63 1005.82 486.34 1005.99 C 487.05 1006.16 487.87 1006.30 488.63 1006.48 C 490.33 1006.86 492.05 1007.22 493.77 1007.56 C 494.62 1007.72 495.44 1007.94 496.28 1008.09 C 497.12 1008.24 497.81 1008.31 498.56 1008.43 C 500.17 1008.70 501.78 1008.94 503.40 1009.16 C 504.29 1009.29 505.17 1009.45 506.06 1009.56 C 506.95 1009.67 507.64 1009.70 508.42 1009.79 C 510.05 1009.97 511.67 1010.12 513.31 1010.26 C 514.19 1010.33 515.07 1010.45 515.95 1010.51 C 516.83 1010.57 517.51 1010.57 518.29 1010.61 C 520.05 1010.71 521.80 1010.78 523.57 1010.83 C 524.46 1010.83 525.36 1010.93 526.26 1010.94 C 526.95 1010.94 527.65 1010.94 528.35 1010.94 C 530.35 1010.94 532.35 1010.94 534.42 1010.85 C 535.37 1010.85 536.33 1010.85 537.28 1010.85 C 537.78 1010.85 538.28 1010.76 538.75 1010.74 C 541.85 1010.58 544.94 1010.33 548.00 1010.02 C 548.61 1009.95 549.24 1009.94 549.85 1009.87 L 550.16 1009.87 C 555.06 1009.31 559.86 1008.50 564.58 1007.54 C 565.10 1007.44 565.65 1007.39 566.16 1007.28 C 566.67 1007.17 567.28 1006.99 567.85 1006.86 C 569.77 1006.43 571.65 1005.95 573.53 1005.45 C 574.87 1005.09 576.21 1004.75 577.53 1004.36 C 579.45 1003.79 581.31 1003.15 583.17 1002.51 C 584.37 1002.09 585.59 1001.71 586.76 1001.26 C 588.76 1000.50 590.68 999.66 592.60 998.82 C 593.60 998.40 594.54 998.02 595.46 997.58 C 598.26 996.25 600.96 994.84 603.54 993.31 L 921.51 805.00 L 923.00 804.10 C 924.18 803.37 925.25 802.60 926.36 801.84 C 926.94 801.44 927.56 801.06 928.11 800.66 C 929.94 799.33 931.66 797.98 933.25 796.59 L 933.25 796.59 C 935.17 794.89 936.98 793.06 938.66 791.12 C 938.82 790.93 939.04 790.76 939.20 790.58 C 939.57 790.13 939.84 789.66 940.20 789.21 C 941.05 788.13 941.87 787.04 942.60 785.94 C 942.80 785.62 943.08 785.32 943.28 785.00 C 943.48 784.68 943.70 784.15 943.94 783.73 C 944.50 782.73 945.02 781.79 945.48 780.81 C 945.67 780.41 945.93 780.01 946.11 779.61 C 946.29 779.21 946.34 778.86 946.49 778.48 C 946.86 777.48 947.18 776.55 947.49 775.58 C 947.62 775.11 947.84 774.66 947.96 774.19 C 948.04 773.87 948.04 773.54 948.11 773.19 C 948.34 772.19 948.48 771.19 948.61 770.13 C 948.67 769.61 948.82 769.13 948.85 768.59 C 948.88 768.05 948.92 767.49 948.93 766.95 L 951.19 670.31 C 951.18 671.39 951.00 672.45 950.88 673.51 Z" fill="url(#未命名的渐变_12)" fill-rule="nonzero" node-id="220" stroke="none" target-height="340.63" target-width="495.87" target-x="455.32" target-y="670.31"></path><path d="M 535.17 914.42 C 508.26 914.42 481.07 908.85 459.69 897.68 L 110.69 716.73 C 88.50 705.13 73.43 689.51 75.03 672.73 C 75.96 662.96 77.36 659.04 79.49 655.60 C 80.10 667.01 79.86 673.94 84.49 682.71 C 89.88 692.53 102.36 702.18 114.85 708.71 L 463.00 885.29 C 504.66 907.08 569.47 906.51 607.47 884.00 L 931.47 703.27 L 611.74 896.16 C 591.24 908.30 563.36 914.42 535.17 914.42 Z" fill="#ffffff" fill-rule="nonzero" node-id="222" stroke="none" target-height="258.82" target-width="858.04" target-x="73.43" target-y="655.6"></path><path d="M 494.17 635.22 L 411.14 603.95 L 326.88 635.48 L 411.15 669.46 L 494.17 635.22 Z" fill="url(#未命名的渐变_146)" fill-rule="nonzero" node-id="224" stroke="none" target-height="65.51001" target-width="167.29004" target-x="326.88" target-y="603.95"></path><path d="M 411.10 784.99 L 326.88 747.24 L 326.88 635.48 L 411.10 669.59 L 411.10 784.99 Z" fill="url(#未命名的渐变_142)" fill-rule="nonzero" node-id="226" stroke="none" target-height="149.51001" target-width="84.22" target-x="326.88" target-y="635.48"></path><path d="M 411.10 784.99 L 494.17 746.98 L 494.17 635.22 L 411.10 669.59 L 411.10 784.99 Z" fill="#005ae9" fill-rule="nonzero" node-id="228" stroke="none" target-height="149.77002" target-width="83.07004" target-x="411.1" target-y="635.22"></path><path d="M 328.24 636.01 L 411.36 669.75 L 495.51 634.96 L 411.36 657.41 L 328.24 636.01 Z" fill="url(#未命名的渐变_178)" fill-rule="nonzero" node-id="230" stroke="none" target-height="34.789978" target-width="167.27002" target-x="328.24" target-y="634.96"></path><path d="M 411.34 743.01 L 411.34 669.75 L 419.56 666.33 L 411.34 743.01 Z" fill="url(#未命名的渐变_178-2)" fill-rule="nonzero" node-id="232" stroke="none" target-height="76.67993" target-width="8.220032" target-x="411.33997" target-y="666.33"></path><path d="M 275.49 484.54 L 222.56 464.60 L 168.85 484.70 L 222.57 506.36 L 275.49 484.54 Z" fill="url(#未命名的渐变_146-2)" fill-rule="nonzero" node-id="234" stroke="none" target-height="41.75995" target-width="106.639984" target-x="168.85" target-y="464.60004"></path><path d="M 222.54 580.01 L 168.85 555.94 L 168.85 484.70 L 222.54 506.45 L 222.54 580.01 Z" fill="url(#未命名的渐变_142-2)" fill-rule="nonzero" node-id="236" stroke="none" target-height="95.31003" target-width="53.690002" target-x="168.85" target-y="484.69998"></path><path d="M 222.54 580.01 L 275.49 555.78 L 275.49 484.54 L 222.54 506.45 L 222.54 580.01 Z" fill="#005ae9" fill-rule="nonzero" node-id="238" stroke="none" target-height="95.47" target-width="52.94998" target-x="222.54001" target-y="484.54"></path><path d="M 169.72 485.04 L 222.70 506.55 L 276.35 484.37 L 222.70 498.68 L 169.72 485.04 Z" fill="url(#未命名的渐变_178-3)" fill-rule="nonzero" node-id="240" stroke="none" target-height="22.179993" target-width="106.630005" target-x="169.72" target-y="484.37"></path><path d="M 222.69 553.25 L 222.69 506.54 L 227.93 504.37 L 222.69 553.25 Z" fill="url(#未命名的渐变_178-4)" fill-rule="nonzero" node-id="242" stroke="none" target-height="48.879974" target-width="5.23999" target-x="222.69" target-y="504.37003"></path><g node-id="275"><path d="M 410.56 631.10 L 410.56 475.82 C 410.56 473.69 412.28 471.97 414.41 471.97 L 416.49 471.97 C 418.62 471.97 420.34 473.69 420.34 475.82 L 420.34 631.10 C 420.34 633.23 418.62 634.95 416.49 634.95 L 414.41 634.95 C 412.28 634.95 410.56 633.23 410.56 631.10 Z" fill="url(#未命名的渐变_274)" fill-rule="nonzero" group-id="1" node-id="246" stroke="none" target-height="162.97998" target-width="9.780029" target-x="410.56" target-y="471.96997"></path></g><path d="M 799.17 522.30 L 684.89 479.27 L 568.91 522.66 L 684.91 569.44 L 799.17 522.30 Z" fill="url(#未命名的渐变_146-3)" fill-rule="nonzero" node-id="249" stroke="none" target-height="90.170044" target-width="230.26001" target-x="568.91" target-y="479.26996"></path><path d="M 684.83 728.45 L 568.91 676.49 L 568.91 522.66 L 684.83 569.62 L 684.83 728.45 Z" fill="url(#未命名的渐变_142-3)" fill-rule="nonzero" node-id="251" stroke="none" target-height="205.79004" target-width="115.920044" target-x="568.91" target-y="522.66"></path><path d="M 684.83 728.45 L 799.17 676.13 L 799.17 522.30 L 684.83 569.62 L 684.83 728.45 Z" fill="#005ae9" fill-rule="nonzero" node-id="253" stroke="none" target-height="206.15002" target-width="114.339966" target-x="684.83" target-y="522.3"></path><path d="M 579.35 526.64 L 684.85 569.46 L 791.64 525.31 L 684.85 553.80 L 579.35 526.64 Z" fill="url(#未命名的渐变_178-5)" fill-rule="nonzero" node-id="255" stroke="none" target-height="44.150024" target-width="212.28998" target-x="579.35" target-y="525.31"></path><path d="M 684.82 662.43 L 684.82 569.45 L 695.24 565.12 L 684.82 662.43 Z" fill="url(#未命名的渐变_178-6)" fill-rule="nonzero" node-id="257" stroke="none" target-height="97.31" target-width="10.419983" target-x="684.82" target-y="565.12"></path><path d="M 668.41 227.51 L 504.40 165.75 L 337.96 228.03 L 504.43 295.15 L 668.41 227.51 Z" fill="url(#未命名的渐变_146-4)" fill-rule="nonzero" node-id="259" stroke="none" target-height="129.4" target-width="330.44998" target-x="337.96" target-y="165.75"></path><path d="M 504.32 523.36 L 337.96 448.79 L 337.96 228.03 L 504.32 295.42 L 504.32 523.36 Z" fill="url(#未命名的渐变_142-4)" fill-rule="nonzero" node-id="261" stroke="none" target-height="295.33" target-width="166.36002" target-x="337.96" target-y="228.03"></path><path d="M 504.32 523.36 L 668.41 448.28 L 668.41 227.51 L 504.32 295.42 L 504.32 523.36 Z" fill="#005ae9" fill-rule="nonzero" node-id="263" stroke="none" target-height="295.85" target-width="164.08997" target-x="504.32" target-y="227.50998"></path><path d="M 383.68 246.08 L 504.40 295.08 L 626.61 244.56 L 504.40 277.16 L 383.68 246.08 Z" fill="url(#未命名的渐变_178-7)" fill-rule="nonzero" node-id="265" stroke="none" target-height="50.51999" target-width="242.93" target-x="383.68" target-y="244.56"></path><path d="M 504.37 401.48 L 504.37 295.07 L 516.30 290.12 L 504.37 401.48 Z" fill="url(#未命名的渐变_178-8)" fill-rule="nonzero" node-id="267" stroke="none" target-height="111.360016" target-width="11.929962" target-x="504.37003" target-y="290.12"></path><path d="M 683.25 452.94 L 622.78 432.14 C 619.53 432.13 616.89 429.49 616.88 426.24 L 616.88 426.24 C 616.90 422.99 619.53 420.36 622.78 420.35 L 683.25 441.16 C 686.50 441.17 689.13 443.80 689.14 447.05 L 689.14 447.05 C 689.13 450.30 686.50 452.93 683.25 452.94 Z" fill="url(#未命名的渐变_274-2)" fill-rule="nonzero" node-id="269" stroke="none" target-height="32.590027" target-width="72.26001" target-x="616.88" target-y="420.35"></path><g node-id="276"><path d="M 677.35 510.09 L 677.35 445.80 C 677.35 444.57 677.84 443.39 678.71 442.52 C 679.58 441.65 680.76 441.16 681.99 441.16 L 684.50 441.16 C 685.73 441.16 686.91 441.65 687.78 442.52 C 688.65 443.39 689.14 444.57 689.14 445.80 L 689.14 510.09 C 689.14 511.32 688.65 512.50 687.78 513.37 C 686.91 514.24 685.73 514.73 684.50 514.73 L 681.99 514.73 C 680.76 514.73 679.58 514.24 678.71 513.37 C 677.84 512.50 677.35 511.32 677.35 510.09 Z" fill="url(#未命名的渐变_274-3)" fill-rule="nonzero" group-id="2" node-id="273" stroke="none" target-height="73.57001" target-width="11.790039" target-x="677.35" target-y="441.1599"></path></g></svg>