<?xml version="1.0" standalone="no"?><!DOCTYPE svg PUBLIC "-//W3C//DTD SVG 1.1//EN" "http://www.w3.org/Graphics/SVG/1.1/DTD/svg11.dtd"><svg t="1758091265122" class="icon" viewBox="0 0 1024 1024" version="1.1" xmlns="http://www.w3.org/2000/svg" p-id="10065" xmlns:xlink="http://www.w3.org/1999/xlink" width="200" height="200"><path d="M743.63 30H283a72 72 0 0 0-71.88 71.87v169.36h-83.78a82.84 82.84 0 0 0-82.84 82.84v320.38a40 40 0 0 0 12.26 28.85 40 40 0 0 0 28.86 12.27h125.51v172A83.77 83.77 0 0 0 294 970.42h458.83a81.76 81.76 0 0 0 64.71-31.81l52.09 38.18a30 30 0 0 0 38.46-45.87 29.37 29.37 0 0 0-4-3.52l-69.38-50.86v-161h104.67a40.12 40.12 0 0 0 40.12-40.12V355.07a84.62 84.62 0 0 0-83.84-83.84h-80.15V101.91A72 72 0 0 0 743.63 30z m1.94 346.19A29.73 29.73 0 1 1 715.85 406a29.73 29.73 0 0 1 29.72-29.77z m28.15 455.6l-14.06-10.3A125.74 125.74 0 0 0 536.65 710c-0.52-0.58-1.06-1.14-1.63-1.68a29.92 29.92 0 0 0-21.7-9.3H343.81a30.51 30.51 0 0 0 1 61h169.51c0.88 0 1.74 0 2.6-0.12a125.82 125.82 0 0 0 1 45.08 27.81 27.81 0 0 0-11.62-2.54H365.18a28.38 28.38 0 0 0 1 56.74h141.09A27.88 27.88 0 0 0 532.56 843a128 128 0 0 0 108.85 62.81 124.56 124.56 0 0 0 85.37-33.76l41.2 30.2a21.84 21.84 0 0 1-16.15 7.13H293a20.28 20.28 0 0 1-20.89-20.89V662.77A21.92 21.92 0 0 1 294 640.88h458.83a20.28 20.28 0 0 1 20.89 20.89z m-68.23-52.06a63.48 63.48 0 1 1-18.59-45.48 65.15 65.15 0 0 1 18.59 45.52z m129.14-265.44a30 30 0 0 1-30 30H224.75a30 30 0 0 1 0-60h579.88a30 30 0 0 1 30 30z" fill="#1296db" p-id="10066"></path></svg>