<?xml version="1.0" standalone="no"?><!DOCTYPE svg PUBLIC "-//W3C//DTD SVG 1.1//EN" "http://www.w3.org/Graphics/SVG/1.1/DTD/svg11.dtd"><svg t="1758091233972" class="icon" viewBox="0 0 1024 1024" version="1.1" xmlns="http://www.w3.org/2000/svg" p-id="8969" xmlns:xlink="http://www.w3.org/1999/xlink" width="200" height="200"><path d="M290.16 784h443.68v44H290.16zM651.5 261h-279a30 30 0 0 0 0 60h279a30 30 0 0 0 0-60zM651.5 356h-279a30 30 0 0 0 0 60h279a30 30 0 0 0 0-60z" fill="#1296db" p-id="8970"></path><path d="M863.5 461.72H764V246a88.1 88.1 0 0 0-88-88H348a88.1 88.1 0 0 0-88 88v215.72h-99.5c-37.67 0-68.5 33.14-68.5 73.65v257c0 40.49 30.83 73.63 68.5 73.63h93.12v-65.05c0-19.81 19.67-36 43.72-36h429.32c24 0 43.72 16.21 43.72 36V866h93.12c37.67 0 68.5-33.14 68.5-73.65v-257c0-40.49-30.83-73.63-68.5-73.63zM320 246a28 28 0 0 1 28-28h328a28 28 0 0 1 28 28v215.72H320z m517.5 404a38.5 38.5 0 1 1 38.5-38.5 38.5 38.5 0 0 1-38.5 38.5z" fill="#1296db" p-id="8971"></path></svg>